<?xml version="1.0" encoding="utf-8"?>
<!-- Generator: Adobe Illustrator 23.0.1, SVG Export Plug-In . SVG Version: 6.00 Build 0)  -->
<svg version="1.1" id="Layer_1" xmlns="http://www.w3.org/2000/svg" xmlns:xlink="http://www.w3.org/1999/xlink" x="0px" y="0px"
	 viewBox="0 0 660 64" style="enable-background:new 0 0 660 64;" xml:space="preserve">
<g>
	<g>
		<path d="M385.25,7.32c1.53,0,2.87,0,4.21,0c5.68,12.57,11.36,25.12,16.99,37.57c5.11-12.43,10.26-24.96,15.43-37.55
			c1.35,0,2.71,0,4.23,0c0.84,16.39,1.69,32.79,2.53,49.24c-2.45,0-4.82,0-7.86,0c0-11.84,0-23.67,0-36.8
			c-5.69,13.53-10.83,25.73-16.01,38.05c-5.5-12.38-10.94-24.63-16.37-36.87c-0.53,11.82-1.05,23.68-1.58,35.61
			c-1.41,0-2.93,0-4.59,0C383.22,40.15,384.24,23.73,385.25,7.32z"/>
		<path d="M41.07,56.61c-1.41,0-2.55,0-3.79,0c-8.63-12.2-17.3-24.47-25.5-36.07c0,11.49,0,23.73,0,36.04c-1.28,0-2.93,0-4.38,0
			c0-16.34,0-32.73,0-49.2c2.06-0.07,3.67-0.44,5.12,1.66C20.71,20.9,29.1,32.62,36.79,43.49c0-11.28,0-23.66,0-36.12
			c1.17,0,2.82,0,4.29,0C41.07,23.72,41.07,40.12,41.07,56.61z"/>
		<path d="M286.78,7.6c6.26,0,12.39-0.37,18.45,0.11c5.81,0.46,9.1,4.21,9.69,9.7c0.66,6.11-2.57,11.09-8.78,13.5
			c-0.79,0.31-1.6,0.55-2.56,0.88c4.69,8.28,9.35,16.51,14.05,24.81c-2.58,0-5.08,0-7.52,0c-4.91-9-9.82-18-14.73-27
			c10.28-1.48,13.45-4.25,12.67-11.07c-0.74-6.45-5.22-8.91-14.29-8.04c0,15.37,0,30.71,0,46.1c-2.05,0-4.45,0-6.95,0
			C287.2,40.2,287.71,23.83,286.78,7.6z"/>
		<path d="M145.86,56.62c-2.62,0-5.13,0-7.53,0c-4.93-9.03-9.83-18.01-14.72-26.99c11.12-2.39,13.79-4.95,12.53-12.04
			c-1.02-5.75-6.04-8.19-14.16-7.1c0,15.37,0,30.68,0,46.08c-2.01,0-4.43,0-6.96,0c0.4-16.39,0.91-32.78-0.03-48.93
			c6.32,0,12.56-0.45,18.7,0.13c5.96,0.56,9.03,4.38,9.44,10.08c0.44,6.17-2.98,11.05-9.3,13.24c-0.64,0.22-1.3,0.43-2.05,0.67
			C136.48,40.05,141.13,48.27,145.86,56.62z"/>
		<path d="M209.8,55.92c0-1.93,0-3.75,0-5.68c3.68,2.91,7.75,4.34,12.35,3.68c3.78-0.54,6.42-2.74,7.52-6.42
			c1.09-3.64,0.06-6.97-2.87-9.25c-3.27-2.56-6.91-4.65-10.39-6.94c-6.3-4.16-8.75-10.02-6.69-15.99c2.01-5.8,8.65-9.7,15.62-9.03
			c2.81,0.27,5.58,0.86,8.4,1.3c0,1.96,0,3.64,0,5.38c-4.06-2.94-8.42-4.56-13.4-3.04c-2.93,0.89-5.05,2.76-5.6,5.94
			c-0.52,3.04,0.8,5.42,3.22,7.08c3.84,2.65,7.92,4.95,11.66,7.71c5.96,4.4,7.79,10.38,5.53,16.8c-2.16,6.13-8.22,10.18-15.1,10.06
			C216.58,57.46,213.15,57.08,209.8,55.92z"/>
		<path d="M255.82,10.89c-1.96,0-4.05-0.11-6.13,0.03c-2.04,0.14-4.06,0.53-6.16,0.82c0-1.36,0-2.83,0-4.38c10.52,0,21.06,0,31.66,0
			c0,1.49,0,2.98,0,4.55c-4.13-1.12-8.3-1.25-12.33-1.18c0,15.27,0,30.52,0,45.84c-2.22,0-4.75,0-7.03,0
			C255.82,41.33,255.82,26.08,255.82,10.89z"/>
		<g>
			<path d="M184.82,8.62c-8.72-2.65-17.72-0.72-26.67-1.45c0.49,16.63,0.48,33.01,0.01,49.48c4.81,0,9.46,0,14.1,0
				c16.5,0,25.56-9.04,25.62-25.58C197.92,19.15,193.46,11.25,184.82,8.62z M187.35,45.44c-5.18,8.7-13.62,8.5-22.1,7.85
				c0-14.29,0-28.46,0-42.79c7.53-0.42,15.44-1.38,21.1,5.77C191.53,22.81,192.05,37.54,187.35,45.44z"/>
		</g>
		<g>
			<path d="M348.08,6.43c-13.51-0.02-23.11,10.59-23.1,25.51c0.02,14.92,9.65,25.61,23.06,25.61c13.62-0.01,23.01-10.45,23.02-25.63
				C371.07,16.7,361.82,6.45,348.08,6.43z M361.79,43.6c-2.29,7.33-7.68,10.92-14.97,10.45c-6.98-0.45-11.74-5.11-13.35-13.3
				c-0.58-2.97-0.76-6.01-1.12-9.02c0.2-4.01,0.6-7.92,1.92-11.7c2.33-6.69,7.13-10.29,13.67-10.3c6.7-0.01,11.51,3.44,13.75,10.26
				C364.26,27.81,364.24,35.77,361.79,43.6z"/>
		</g>
		<g>
			<path d="M93.08,11.72c-7.34-6.12-15.8-7.03-24.34-3.21c-9.92,4.43-13.19,13.19-13.55,22.02c0.02,12.52,5.53,21.77,14.26,25.3
				c10.46,4.23,22.18,0.58,27.84-8.67C104.01,36.17,102.14,19.27,93.08,11.72z M91.83,44.17c-2.4,6.58-7.13,9.94-13.94,9.9
				c-6.36-0.04-11.17-3.55-13.3-10.05c-2.45-7.48-2.59-15.14-0.51-22.7c2.25-8.16,7.69-12.07,15.43-11.58
				c6.99,0.44,12.03,5.7,13.46,14.2c0.44,2.63,0.6,5.32,0.71,6.37C93.67,36.11,93.27,40.22,91.83,44.17z"/>
		</g>
	</g>
	<g>
		<path d="M484.31,23.76c-1.59-2.1-3.77-3.16-6.56-3.16c-3.83,0-6.63,1.18-8.41,3.53c-1.78,2.35-2.67,5.66-2.67,9.92v6.97
			c0,2.46,0.04,5.04,0.12,7.75c0.08,2.71,0.26,5.15,0.53,7.34c-1.26-0.11-2.49-0.16-3.69-0.16c-1.2,0-2.43,0.05-3.69,0.16
			c0.27-2.19,0.45-4.63,0.53-7.34c0.08-2.71,0.12-5.29,0.12-7.75v-8.53c0-2.46-0.04-5.04-0.12-7.75s-0.26-5.23-0.53-7.58
			c1.53,0.27,2.76,0.41,3.69,0.41c0.44,0,0.92-0.04,1.44-0.12c0.52-0.08,1.13-0.18,1.84-0.29c-0.16,2.19-0.25,4.37-0.25,6.56h0.16
			c1.53-2.35,3.36-4.17,5.49-5.45c2.13-1.28,4.67-1.93,7.63-1.93c1.53,0,3.08,0.22,4.63,0.66c1.56,0.44,2.96,1.19,4.22,2.26
			c1.26,1.07,2.28,2.52,3.08,4.35c0.79,1.83,1.19,4.17,1.19,7.01c0,2.35-0.06,4.77-0.16,7.26c-0.11,2.49-0.16,5.12-0.16,7.91v5.33
			c0,0.88,0.01,1.74,0.04,2.58c0.03,0.85,0.07,1.65,0.12,2.42c-1.09-0.11-2.24-0.16-3.44-0.16c-1.15,0-2.27,0.05-3.36,0.16
			c0.11-2.84,0.23-5.77,0.37-8.77c0.14-3.01,0.21-6.1,0.21-9.27v-5C486.69,28.96,485.89,25.86,484.31,23.76z"/>
		<path d="M504.23,36.75c0-3.72,0.59-6.87,1.76-9.47c1.17-2.6,2.72-4.7,4.63-6.31c1.91-1.61,4.06-2.79,6.44-3.53
			s4.74-1.11,7.09-1.11c2.41,0,4.78,0.37,7.13,1.11s4.48,1.91,6.4,3.53c1.91,1.61,3.46,3.72,4.63,6.31c1.17,2.6,1.76,5.75,1.76,9.47
			c0,3.72-0.59,6.88-1.76,9.47c-1.18,2.6-2.72,4.7-4.63,6.31c-1.91,1.61-4.05,2.75-6.4,3.4s-4.73,0.98-7.13,0.98
			c-2.35,0-4.71-0.33-7.09-0.98s-4.52-1.79-6.44-3.4c-1.91-1.61-3.46-3.72-4.63-6.31C504.82,43.63,504.23,40.47,504.23,36.75z
			 M511.45,36.75c0,2.3,0.21,4.51,0.62,6.64c0.41,2.13,1.11,4.03,2.09,5.7c0.98,1.67,2.3,2.99,3.94,3.98
			c1.64,0.98,3.66,1.48,6.07,1.48c2.41,0,4.43-0.49,6.07-1.48c1.64-0.98,2.95-2.31,3.94-3.98c0.98-1.67,1.68-3.57,2.09-5.7
			c0.41-2.13,0.62-4.35,0.62-6.64s-0.21-4.51-0.62-6.64c-0.41-2.13-1.11-4.03-2.09-5.7c-0.98-1.67-2.3-2.99-3.94-3.98
			c-1.64-0.98-3.66-1.48-6.07-1.48c-2.41,0-4.43,0.49-6.07,1.48c-1.64,0.98-2.95,2.31-3.94,3.98c-0.98,1.67-1.68,3.57-2.09,5.7
			S511.45,34.46,511.45,36.75z"/>
		<path d="M564.34,6.17c-0.16,2.08-0.29,4.11-0.37,6.11c-0.08,2-0.18,4.01-0.29,6.03c0.6,0,1.72-0.01,3.36-0.04
			c1.64-0.03,3.42-0.09,5.33-0.2c-0.06,0.16-0.08,0.46-0.08,0.9v0.82v0.9c0,0.38,0.03,0.66,0.08,0.82
			c-0.71-0.05-1.45-0.09-2.21-0.12c-0.77-0.03-1.59-0.04-2.46-0.04h-4.02c-0.06,0.22-0.12,1.09-0.21,2.62
			c-0.08,1.53-0.15,3.35-0.21,5.45c-0.05,2.1-0.1,4.3-0.12,6.6c-0.03,2.3-0.04,4.35-0.04,6.15c0,1.53,0.04,3.03,0.12,4.51
			s0.34,2.8,0.78,3.98c0.44,1.18,1.09,2.12,1.97,2.83c0.87,0.71,2.13,1.07,3.77,1.07c0.44,0,1.02-0.05,1.76-0.16
			c0.74-0.11,1.38-0.25,1.93-0.41v1.97c-0.93,0.16-1.96,0.37-3.08,0.62c-1.12,0.25-2.2,0.37-3.24,0.37c-3.44,0-5.99-0.85-7.63-2.54
			c-1.64-1.69-2.46-4.18-2.46-7.46c0-1.48,0.03-3.08,0.08-4.8c0.05-1.72,0.12-3.61,0.21-5.66c0.08-2.05,0.15-4.32,0.21-6.81
			c0.05-2.49,0.08-5.26,0.08-8.32h-2.62c-0.44,0-0.9,0.01-1.39,0.04c-0.49,0.03-1.01,0.07-1.56,0.12c0.05-0.33,0.1-0.64,0.12-0.94
			c0.03-0.3,0.04-0.62,0.04-0.94c0-0.27-0.01-0.55-0.04-0.82c-0.03-0.27-0.07-0.55-0.12-0.82c2.46,0.16,4.26,0.25,5.41,0.25
			c-0.05-1.09-0.1-2.46-0.12-4.1c-0.03-1.64-0.1-3.33-0.21-5.08l6.81-2.87H564.34z"/>
		<path d="M581.64,37.9c0-6.72,1.6-12,4.8-15.83c3.2-3.83,7.86-5.74,13.98-5.74c2.9,0,5.4,0.45,7.5,1.35c2.1,0.9,3.87,2.1,5.29,3.61
			c1.42,1.5,2.47,3.27,3.16,5.29c0.68,2.02,1.03,4.18,1.03,6.48c0,0.55-0.01,1.08-0.04,1.6c-0.03,0.52-0.07,1.05-0.12,1.6
			c-2.95-0.05-5.88-0.11-8.77-0.16c-2.9-0.05-5.82-0.08-8.77-0.08c-1.8,0-3.6,0.03-5.37,0.08c-1.78,0.06-3.57,0.11-5.37,0.16
			c-0.05,0.27-0.08,0.68-0.08,1.23v1.07c0,2.13,0.31,4.13,0.94,5.99c0.63,1.86,1.54,3.46,2.75,4.8c1.2,1.34,2.68,2.41,4.43,3.2
			c1.75,0.79,3.77,1.19,6.07,1.19c1.09,0,2.21-0.15,3.36-0.45c1.15-0.3,2.27-0.71,3.36-1.23c1.09-0.52,2.12-1.13,3.08-1.85
			c0.96-0.71,1.79-1.48,2.5-2.3l0.41,0.25l-0.49,4.02c-1.64,1.31-3.68,2.43-6.11,3.36c-2.43,0.93-4.96,1.39-7.58,1.39
			c-2.95,0-5.65-0.45-8.08-1.35c-2.43-0.9-4.54-2.21-6.31-3.94c-1.78-1.72-3.14-3.76-4.1-6.11
			C582.12,43.18,581.64,40.64,581.64,37.9z M600.58,18.96c-2.02,0-3.73,0.46-5.12,1.39c-1.39,0.93-2.54,2.09-3.44,3.48
			c-0.9,1.39-1.59,2.93-2.05,4.59c-0.47,1.67-0.75,3.24-0.86,4.72c1.69,0.06,3.46,0.11,5.29,0.16c1.83,0.05,3.62,0.08,5.37,0.08
			c1.8,0,3.63-0.03,5.49-0.08c1.86-0.05,3.66-0.11,5.41-0.16c0-1.48-0.12-3.03-0.37-4.67c-0.25-1.64-0.74-3.17-1.48-4.59
			c-0.74-1.42-1.76-2.6-3.08-3.53C604.44,19.42,602.72,18.96,600.58,18.96z"/>
		<path d="M630.56,50.28c0.57,0.66,1.26,1.27,2.05,1.85c0.79,0.57,1.69,1.05,2.71,1.44c1.01,0.38,2.09,0.57,3.24,0.57
			c1.04,0,2.04-0.16,2.99-0.49c0.96-0.33,1.8-0.79,2.54-1.39c0.74-0.6,1.33-1.37,1.76-2.3c0.44-0.93,0.66-2,0.66-3.2
			c0-1.69-0.48-2.99-1.43-3.9c-0.96-0.9-2.15-1.64-3.57-2.21c-1.42-0.57-2.98-1.08-4.67-1.52c-1.7-0.44-3.25-1.05-4.67-1.84
			c-1.42-0.79-2.61-1.85-3.57-3.16c-0.96-1.31-1.43-3.12-1.43-5.41c0-1.8,0.3-3.46,0.9-4.96c0.6-1.5,1.48-2.8,2.62-3.9
			c1.15-1.09,2.57-1.95,4.26-2.58c1.69-0.63,3.63-0.94,5.82-0.94c2.02,0,3.73,0.27,5.12,0.82c1.39,0.55,2.72,1.04,3.98,1.48
			c-0.44,0.82-0.85,1.83-1.23,3.03c-0.38,1.2-0.63,2.13-0.74,2.79h-0.98c-0.44-1.31-1.29-2.49-2.54-3.53
			c-1.26-1.04-2.82-1.56-4.67-1.56c-0.82,0-1.64,0.14-2.46,0.41c-0.82,0.27-1.56,0.68-2.21,1.23c-0.66,0.55-1.2,1.26-1.64,2.13
			c-0.44,0.88-0.66,1.91-0.66,3.12c0,1.75,0.48,3.1,1.44,4.06c0.96,0.96,2.14,1.71,3.57,2.25c1.42,0.55,2.98,1.02,4.67,1.44
			c1.69,0.41,3.25,0.98,4.67,1.72c1.42,0.74,2.61,1.76,3.57,3.07c0.96,1.31,1.44,3.12,1.44,5.41c0,1.59-0.34,3.14-1.03,4.67
			c-0.68,1.53-1.67,2.91-2.95,4.14c-1.29,1.23-2.83,2.19-4.63,2.87s-3.85,1.02-6.15,1.02c-2.52,0-4.62-0.25-6.31-0.74
			c-1.7-0.49-3.12-1.07-4.26-1.72c0.33-0.71,0.67-1.68,1.02-2.91s0.53-2.25,0.53-3.07h0.98C629.56,49.03,629.98,49.63,630.56,50.28z
			"/>
	</g>
</g>
</svg>
